<?xml version="1.0" encoding="UTF-8" standalone="no"?>
<svg
   xmlns:dc="http://purl.org/dc/elements/1.1/"
   xmlns:cc="http://creativecommons.org/ns#"
   xmlns:rdf="http://www.w3.org/1999/02/22-rdf-syntax-ns#"
   xmlns:svg="http://www.w3.org/2000/svg"
   xmlns="http://www.w3.org/2000/svg"
   xmlns:sodipodi="http://sodipodi.sourceforge.net/DTD/sodipodi-0.dtd"
   xmlns:inkscape="http://www.inkscape.org/namespaces/inkscape"
   height="240"
   width="290"
   id="svg3336"
   version="1.1"
   inkscape:version="0.91 r13725"
   sodipodi:docname="NASA_logo4lunchbox_hige.svg">
  <metadata
     id="metadata3454">
    <rdf:RDF>
      <cc:Work
         rdf:about="">
        <dc:format>image/svg+xml</dc:format>
        <dc:type
           rdf:resource="http://purl.org/dc/dcmitype/StillImage" />
        <dc:title />
      </cc:Work>
    </rdf:RDF>
  </metadata>
  <defs
     id="defs3452" />
  <sodipodi:namedview
     pagecolor="#ffffff"
     bordercolor="#666666"
     borderopacity="1"
     objecttolerance="10"
     gridtolerance="10"
     guidetolerance="10"
     inkscape:pageopacity="0"
     inkscape:pageshadow="2"
     inkscape:window-width="1680"
     inkscape:window-height="980"
     id="namedview3450"
     showgrid="false"
     inkscape:zoom="1.6166667"
     inkscape:cx="255.06939"
     inkscape:cy="63.300413"
     inkscape:window-x="0"
     inkscape:window-y="1"
     inkscape:window-maximized="1"
     inkscape:current-layer="svg3336" />
  <path
     d="M 287.63086 13.539062 C 287.62347 13.550729 287.61483 13.56255 287.60742 13.574219 C 287.61117 13.563116 287.6154 13.55212 287.61914 13.541016 L 281.02734 22.134766 C 265.03209 40.13039 235.82326 58.746815 217.93164 67.738281 C 171.53064 91.062281 133.70994 102.22031 83.460938 118.82031 C 47.701937 130.63031 26.688391 140.15992 4.5253906 154.91992 L 5.4101562 155.73633 C 59.261735 123.85582 162.90836 121.99844 231.88086 75.087891 C 187.12041 113.2391 166.95247 121.15412 135.1875 142.73438 C 113.0205 157.78738 72.905203 181.70247 38.033203 221.85547 C 40.557403 219.26928 32.630197 227.68605 39.216797 221.56055 C 64.204797 198.33255 100.50155 171.03431 137.06055 147.32031 C 197.63596 108.03526 269.58919 66.885993 287.5957 13.605469 C 287.60612 13.584352 287.62056 13.560074 287.63086 13.539062 z "
     id="path3342" />
</svg>
