<?xml version="1.0" encoding="UTF-8" standalone="no"?>
<svg
   xmlns:dc="http://purl.org/dc/elements/1.1/"
   xmlns:cc="http://creativecommons.org/ns#"
   xmlns:rdf="http://www.w3.org/1999/02/22-rdf-syntax-ns#"
   xmlns:svg="http://www.w3.org/2000/svg"
   xmlns="http://www.w3.org/2000/svg"
   xmlns:sodipodi="http://sodipodi.sourceforge.net/DTD/sodipodi-0.dtd"
   xmlns:inkscape="http://www.inkscape.org/namespaces/inkscape"
   height="240"
   width="290"
   id="svg3494"
   version="1.1"
   inkscape:version="0.91 r13725"
   sodipodi:docname="NASA_logo4lunchbox4A.svg">
  <metadata
     id="metadata3612">
    <rdf:RDF>
      <cc:Work
         rdf:about="">
        <dc:format>image/svg+xml</dc:format>
        <dc:type
           rdf:resource="http://purl.org/dc/dcmitype/StillImage" />
        <dc:title />
      </cc:Work>
    </rdf:RDF>
  </metadata>
  <defs
     id="defs3610" />
  <sodipodi:namedview
     pagecolor="#ffffff"
     bordercolor="#666666"
     borderopacity="1"
     objecttolerance="10"
     gridtolerance="10"
     guidetolerance="10"
     inkscape:pageopacity="0"
     inkscape:pageshadow="2"
     inkscape:window-width="1680"
     inkscape:window-height="980"
     id="namedview3608"
     showgrid="false"
     inkscape:zoom="63.999999"
     inkscape:cx="172.03956"
     inkscape:cy="131.00393"
     inkscape:window-x="0"
     inkscape:window-y="1"
     inkscape:window-maximized="1"
     inkscape:current-layer="svg3494" />
  <path
     d="M 134.58984 2.1992188 C 68.65988 2.1992188 16.669922 55.378 16.669922 120 C 16.669922 184.615 69.90488 237.80078 134.58984 237.80078 C 199.27584 237.80078 252.50977 184.618 252.50977 120 C 252.50977 55.381 198.02684 2.1992187 134.58984 2.1992188 z M 135.28906 11.939453 C 135.81737 11.939453 136.25 12.374617 136.25 12.898438 C 136.25 13.426735 135.81737 13.859375 135.28906 13.859375 C 134.76375 13.859375 134.33008 13.426735 134.33008 12.898438 C 134.33008 12.374617 134.76375 11.939453 135.28906 11.939453 z M 158.75 20.277344 L 159.08398 23.347656 C 159.62063 23.473823 160.04704 23.894397 160.18164 24.427734 L 163.2207 24.707031 L 160.19336 25.099609 C 160.0735 25.635696 159.65679 26.062824 159.12891 26.205078 L 158.78711 29.431641 L 158.45117 26.228516 C 157.89115 26.11075 157.44769 25.669455 157.31836 25.113281 L 154.28125 24.78125 L 157.32031 24.447266 C 157.44817 23.905159 157.87444 23.476005 158.41602 23.347656 L 158.75 20.277344 z M 128.12695 24.632812 C 128.77518 24.632812 129.31055 25.166633 129.31055 25.814453 C 129.31055 26.462683 128.77514 26.996094 128.12695 26.996094 C 127.47909 26.996094 126.94531 26.462643 126.94531 25.814453 C 126.94531 25.166593 127.47913 24.632813 128.12695 24.632812 z M 141.72852 26.261719 C 142.37339 26.261719 142.91016 26.793043 142.91016 27.439453 C 142.91016 28.087313 142.37335 28.621094 141.72852 28.621094 C 141.07917 28.621094 140.54492 28.087273 140.54492 27.439453 C 140.54492 26.793083 141.0792 26.261719 141.72852 26.261719 z M 112.6875 34.376953 C 113.2158 34.376953 113.65039 34.812211 113.65039 35.337891 C 113.65039 35.864701 113.2158 36.298828 112.6875 36.298828 C 112.16069 36.298828 111.72852 35.864701 111.72852 35.337891 C 111.72852 34.812201 112.16069 34.376953 112.6875 34.376953 z M 131.44922 34.671875 C 131.97752 34.671875 132.41016 35.107132 132.41016 35.632812 C 132.41016 36.159622 131.97752 36.591797 131.44922 36.591797 C 130.92204 36.591797 130.48828 36.159613 130.48828 35.632812 C 130.48828 35.107124 130.92204 34.671875 131.44922 34.671875 z M 115.48828 36.296875 C 116.01658 36.296875 116.44922 36.730549 116.44922 37.255859 C 116.44922 37.784539 116.01658 38.216797 115.48828 38.216797 C 114.96147 38.216797 114.52734 37.784539 114.52734 37.255859 C 114.52734 36.730549 114.96147 36.296875 115.48828 36.296875 z M 118.29883 38.21875 C 118.82601 38.21875 119.25977 38.651961 119.25977 39.175781 C 119.25977 39.704081 118.82601 40.136719 118.29883 40.136719 C 117.77203 40.136719 117.33789 39.704081 117.33789 39.175781 C 117.33789 38.651961 117.77203 38.21875 118.29883 38.21875 z M 141.80078 40.136719 C 142.32609 40.136719 142.75977 40.570393 142.75977 41.095703 C 142.75977 41.619523 142.32609 42.054687 141.80078 42.054688 C 141.27397 42.054688 140.83984 41.619513 140.83984 41.095703 C 140.83984 40.570393 141.27397 40.136719 141.80078 40.136719 z M 114.01758 41.908203 C 114.5429 41.908203 114.98047 42.341878 114.98047 42.867188 C 114.98047 43.393997 114.5429 43.828125 114.01758 43.828125 C 113.48928 43.828125 113.05664 43.393998 113.05664 42.867188 C 113.05664 42.341878 113.48928 41.908203 114.01758 41.908203 z M 93.193359 42.443359 C 98.045719 42.337625 103.94642 43.678828 110.95703 46.773438 C 132.72386 56.386935 153.87332 76.910218 169.88281 98.392578 C 178.52351 99.839757 176.91737 100.16972 180.51953 97.267578 C 180.51953 97.267578 180.28302 99.981752 180.51953 108.36914 L 180.40039 108.48633 C 178.46116 106.99455 176.53595 105.88739 174.68359 105.08594 C 174.68981 105.09494 174.69496 105.10428 174.70117 105.11328 L 171.5957 104.01758 C 171.59379 104.01495 171.59175 104.01239 171.58984 104.00977 C 160.92605 101.18468 154.39417 108.72155 166.33398 112.38477 C 184.37738 117.91877 192.8162 131.87073 175.9082 140.49023 C 164.9222 146.09603 152.73962 140.72852 152.62305 140.72852 C 152.62305 140.72852 148.71743 143.40043 147.29883 144.86133 L 147.06641 130.2168 C 158.41341 140.7279 169.40502 135.53143 169.99609 134.11133 C 171.81809 129.75333 167.53703 128.84306 155.45703 124.19336 C 141.52545 118.83215 142.97163 95.525885 167.07031 98.001953 C 156.98076 85.122976 145.99479 74.072044 136.83398 66.214844 C 136.4963 65.925217 136.17048 65.657832 135.83789 65.376953 C 135.12149 64.775623 134.40605 64.173169 133.70703 63.605469 C 131.8625 62.107449 130.08281 60.727656 128.38281 59.472656 C 86.869834 29.174656 61.242641 47.550778 90.556641 107.30273 C 93.147757 112.58437 95.943601 117.38395 98.828125 121.83984 C 99.254138 120.37548 99.694368 118.8707 100.09961 117.46094 C 101.18131 113.70607 102.14579 110.24734 102.88672 107.33008 L 107.12695 113.78125 L 107.14844 113.83398 C 106.80628 114.93124 106.58289 115.64589 106.01758 117.45703 C 104.74648 121.53363 103.47461 125.60742 103.47461 125.60742 L 111.77539 125.60742 L 113.40234 131.15039 L 113.58203 131.16016 L 105.30859 131.16016 C 110.99493 138.82759 116.72214 145.49762 121.71484 151.95117 C 128.97584 161.33397 143.11872 166.03138 138.13672 170.48438 C 132.52232 175.50508 118.92773 153.36133 118.92773 153.36133 C 113.23308 146.49258 107.68967 139.32684 102.1582 131.20703 C 99.241787 138.02168 103.0987 141.22221 103.59375 141.19727 C 100.31145 141.36652 89.171875 141.19727 89.171875 141.19727 C 95.200975 136.94437 94.845703 135.64648 94.845703 135.64648 C 95.828711 132.15024 96.894039 128.48532 97.957031 124.83789 C 95.134905 120.4178 92.307765 115.72963 89.455078 110.60156 C 70.793281 77.063351 69.81381 42.952805 93.193359 42.443359 z M 158.97266 50.023438 C 159.62201 50.023438 160.18945 50.557258 160.18945 51.205078 C 160.18945 51.851818 159.6575 52.386719 159.00781 52.386719 C 158.36144 52.386719 157.82617 51.851768 157.82617 51.205078 C 157.82617 50.557218 158.32293 50.023437 158.97266 50.023438 z M 103.7793 56.003906 L 104.11328 59.070312 C 104.65278 59.195375 105.07931 59.618146 105.21289 60.154297 L 108.24805 60.433594 L 105.22266 60.822266 C 105.10234 61.360326 104.68519 61.787822 104.1543 61.927734 L 103.81641 65.15625 L 103.47852 61.949219 C 102.91846 61.830597 102.47521 61.390403 102.3457 60.835938 L 99.308594 60.505859 L 102.3457 60.171875 C 102.47299 59.630479 102.90121 59.203638 103.44336 59.074219 L 103.7793 56.003906 z M 91.703125 57.552734 C 92.229935 57.552734 92.664066 57.986872 92.664062 58.513672 C 92.664062 59.040482 92.229925 59.472656 91.703125 59.472656 C 91.176315 59.472656 90.740234 59.040482 90.740234 58.513672 C 90.740234 57.986862 91.176325 57.552734 91.703125 57.552734 z M 95.837891 62.574219 C 96.364701 62.574219 96.800781 63.006856 96.800781 63.535156 C 96.800781 64.060846 96.364691 64.494141 95.837891 64.494141 C 95.311081 64.494141 94.876953 64.060846 94.876953 63.535156 C 94.876953 63.006856 95.311091 62.574219 95.837891 62.574219 z M 36.677734 97.302734 C 56.961734 97.461894 54.971984 97.26238 55.208984 97.5 C 55.563554 97.5 71.404297 124.78258 71.404297 125.01758 C 71.404297 125.13415 71.287109 115.32168 71.287109 103.05078 C 71.287109 101.63358 67.387306 97.5 67.503906 97.5 C 73.293506 97.5 80.861328 97.619141 80.861328 97.619141 C 78.025928 100.92604 77.459147 100.65397 77.435547 102.69727 C 77.355597 109.26887 77.280867 121.41464 77.435547 135.05664 C 77.457587 137.10144 78.972778 137.89019 81.455078 141.43359 L 62.892578 141.43359 C 56.863478 131.39559 45.816094 112.56419 45.871094 112.61719 C 45.955904 112.70349 45.632878 124.43 45.986328 133.875 C 46.105708 136.9919 47.52236 138.00598 50.117188 140.83203 C 50.233997 140.83681 50.126953 140.84375 50.126953 140.84375 C 50.123035 140.83948 50.121099 140.83629 50.117188 140.83203 C 49.853682 140.82124 47.733284 140.82428 35.583984 140.96094 C 40.903584 138.12664 40.197913 134.58294 40.195312 134.46484 C 40.004022 121.41284 40.15625 110.25478 40.15625 103.05078 C 40.15625 101.87018 40.075079 101.9864 36.412109 97.5 L 36.677734 97.302734 z M 100.24219 97.646484 C 111.07319 97.681604 122.38867 97.738281 122.38867 97.738281 C 125.34407 104.94248 132.08262 125.13611 137.16602 137.53711 C 138.51032 140.81491 140.83008 141.43359 140.83008 141.43359 C 131.60908 141.31702 114.49884 141.39528 114.58984 141.31641 C 119.19884 137.18041 118.60736 137.18116 116.59766 131.16016 L 116.58008 131.16016 L 114.99414 125.66992 L 113.08008 120.84766 L 108.57812 109.35352 L 108.58203 109.34961 L 108.56836 109.33008 L 108.56055 109.30859 L 108.55859 109.31445 L 106.71289 106.5918 L 103.46289 101.58398 C 103.46144 101.58159 103.45849 101.57857 103.45703 101.57617 L 103.06055 100.96484 L 103.04492 100.98438 C 102.42829 100.10858 101.5451 99.056517 100.40234 97.974609 L 100.24219 97.646484 z M 199.30859 98.236328 C 210.14259 98.271448 221.46094 98.330078 221.46094 98.330078 C 224.41184 105.53428 231.15197 125.72891 236.23438 138.12891 C 237.57718 141.40821 239.89648 142.02539 239.89648 142.02539 C 230.67998 141.90583 213.56825 141.98811 213.65625 141.90625 C 218.23786 137.80198 217.68084 137.76279 215.70312 131.85742 L 215.71094 131.85742 L 214.07617 126.19922 L 208.67188 112.57617 L 207.625 109.9043 L 207.61719 109.92578 L 202.14453 101.49609 L 202.10938 101.54102 C 201.48894 100.67382 200.58257 99.620414 199.46875 98.564453 L 199.30859 98.236328 z M 173.88086 107.2168 L 176.99805 108.52734 C 180.07775 113.17538 182.89224 117.79342 185.38672 122.28711 C 185.6849 122.82395 185.98627 123.36107 186.27539 123.89453 C 186.58567 124.46713 186.88409 125.03379 187.18359 125.60156 C 187.46399 126.13323 187.7427 126.66379 188.01367 127.19141 C 188.3527 127.8512 188.68415 128.50622 189.00781 129.1582 C 189.19415 129.53381 189.37338 129.90613 189.55469 130.2793 C 189.91072 131.01155 190.26391 131.74207 190.59961 132.46289 C 190.60627 132.47721 190.61444 132.49155 190.62109 132.50586 C 190.67577 132.62337 190.72517 132.73828 190.7793 132.85547 C 191.17174 133.70514 191.56651 134.55674 191.92969 135.38867 C 192.23812 136.09489 192.58775 136.97415 192.93945 137.875 C 193.99266 136.69618 193.91211 136.24023 193.91211 136.24023 C 195.56871 130.34713 197.48862 123.89378 199.16992 118.05078 C 200.25659 114.2723 201.21787 110.81401 201.96875 107.86328 L 206.21094 114.3125 L 206.23242 114.36914 C 205.77614 115.8339 205.66097 116.20994 205.08594 118.05078 C 203.81194 122.12698 202.54687 126.20117 202.54688 126.20117 L 210.87695 126.20117 L 212.48633 131.67969 L 213.79688 131.75195 L 201.24414 131.75195 C 198.28844 138.60115 202.16171 141.81402 202.6582 141.79102 C 201.04674 141.87344 197.53782 141.87339 194.38477 141.85352 C 194.40557 141.91477 194.42644 141.98715 194.44727 142.04883 C 194.81315 143.13338 195.17604 144.271 195.53711 145.4707 C 195.59159 145.65145 195.64509 145.82871 195.69922 146.01172 C 196.05905 147.22989 196.40869 148.4889 196.74219 149.79102 C 196.86687 150.27695 196.98819 150.76672 197.10742 151.26172 C 197.1668 151.5087 197.22927 151.75104 197.28711 152 C 197.67449 153.66403 198.02438 155.36795 198.32227 157.08984 C 198.32283 157.09312 198.32365 157.09633 198.32422 157.09961 C 198.32713 157.11647 198.32913 157.13353 198.33203 157.15039 C 198.47781 157.99681 198.60902 158.84669 198.72656 159.69727 C 198.73787 159.77937 198.74679 159.86125 198.75781 159.94336 C 198.86323 160.72594 198.95357 161.50671 199.03125 162.28711 C 199.04419 162.41769 199.0543 162.5473 199.06641 162.67773 C 199.1347 163.40991 199.19001 164.13801 199.23047 164.86328 C 199.23834 165.00555 199.24522 165.14715 199.25195 165.28906 C 199.28724 166.02516 199.30557 166.75469 199.30859 167.47852 C 199.30902 167.59181 199.31095 167.70542 199.31055 167.81836 C 199.308 168.62041 199.28508 169.411 199.23828 170.19141 C 199.23735 170.20681 199.23728 170.22289 199.23633 170.23828 C 199.23601 170.24348 199.23469 170.24871 199.23438 170.25391 C 199.16419 171.39335 199.04069 172.50284 198.86523 173.58008 C 198.82525 173.8252 198.78216 174.06728 198.73633 174.30859 C 198.64673 174.78104 198.54449 175.24457 198.43164 175.70117 C 198.3691 175.95402 198.3043 176.20553 198.23438 176.45312 C 198.1563 176.72973 198.07779 177.00571 197.99023 177.27539 C 197.98439 177.29338 197.97659 177.31018 197.9707 177.32812 C 197.84368 177.71572 197.70594 178.09457 197.55859 178.4668 C 196.35168 181.51617 194.456 184.03401 191.64258 185.69336 C 190.37319 186.44204 188.92166 187.01911 187.26172 187.39062 C 186.86215 187.48006 186.44901 187.55757 186.02539 187.62305 C 185.97407 187.63101 185.92082 187.63692 185.86914 187.64453 C 185.50385 187.69806 185.12945 187.74201 184.74609 187.77734 C 184.64488 187.78674 184.54194 187.79463 184.43945 187.80273 C 184.09754 187.82955 183.74883 187.84911 183.39258 187.86133 C 183.25235 187.86622 183.11123 187.87045 182.96875 187.87305 C 182.64753 187.8787 182.31909 187.87536 181.98633 187.86914 C 181.8163 187.86607 181.64769 187.8656 181.47461 187.85938 C 181.14882 187.84746 180.81521 187.82595 180.47852 187.80273 C 180.29034 187.78987 180.10568 187.78209 179.91406 187.76562 C 179.56179 187.73516 179.19801 187.69121 178.83398 187.64844 C 178.65079 187.62701 178.47332 187.61249 178.28711 187.58789 C 178.28244 187.58727 178.27811 187.58656 178.27344 187.58594 C 177.74658 187.5159 177.20748 187.43369 176.65625 187.33789 C 176.41201 187.29555 176.15729 187.24086 175.9082 187.19336 C 175.58523 187.13163 175.2648 187.07246 174.93359 187.00195 C 174.57797 186.92639 174.21093 186.83975 173.8457 186.75391 C 173.61845 186.7004 173.39311 186.64933 173.16211 186.5918 C 172.76381 186.49274 172.35682 186.38268 171.94727 186.27148 C 171.73155 186.21284 171.51574 186.1558 171.29688 186.09375 C 170.85948 185.96989 170.41494 185.83688 169.96484 185.69922 C 169.76716 185.63869 169.56734 185.57689 169.36719 185.51367 C 168.90004 185.36628 168.42799 185.21303 167.94727 185.05078 C 167.74389 184.98208 167.5359 184.90928 167.33008 184.83789 C 166.85188 184.67216 166.37241 184.50463 165.88086 184.32422 C 165.6841 184.25196 165.48212 184.17229 165.2832 184.09766 C 164.05493 183.63704 162.79823 183.14523 161.48633 182.5918 L 161.18945 182 C 162.23546 182.43029 163.2468 182.81752 164.24219 183.18555 C 164.49311 183.27832 164.7425 183.36815 164.99023 183.45703 C 165.94397 183.79919 166.88215 184.1229 167.78906 184.4082 C 167.81342 184.41587 167.83896 184.42597 167.86328 184.43359 C 167.87152 184.43618 167.88043 184.43883 167.88867 184.44141 C 168.81662 184.73177 169.71231 184.98269 170.5918 185.21484 C 170.81003 185.27245 171.02691 185.32678 171.24219 185.38086 C 172.02608 185.57776 172.79403 185.7554 173.53906 185.90625 C 173.63144 185.92496 173.72853 185.94879 173.82031 185.9668 C 173.82511 185.96774 173.82919 185.96976 173.83398 185.9707 C 174.63549 186.12767 175.40741 186.251 176.16406 186.35547 C 176.36774 186.3836 176.56907 186.40724 176.76953 186.43164 C 177.49158 186.51946 178.20017 186.59073 178.88086 186.63086 C 178.91342 186.63278 178.948 186.63686 178.98047 186.63867 C 179.6914 186.67835 180.37084 186.68496 181.03711 186.67383 C 181.33156 186.66896 181.62432 186.66107 181.91016 186.64648 C 182.01992 186.64087 182.13174 186.6379 182.24023 186.63086 C 182.67367 186.60281 183.09832 186.56408 183.51172 186.51367 C 183.59604 186.50338 183.67628 186.48972 183.75977 186.47852 C 184.08539 186.43484 184.40565 186.38562 184.71875 186.32812 C 184.86207 186.30177 185.00382 186.27336 185.14453 186.24414 C 185.41854 186.18731 185.68699 186.1242 185.95117 186.05664 C 186.06377 186.02781 186.17824 186.00146 186.28906 185.9707 C 186.64014 185.87338 186.98302 185.76679 187.31641 185.65039 C 187.44607 185.60508 187.57026 185.55402 187.69727 185.50586 C 187.90831 185.4259 188.11656 185.34358 188.32031 185.25586 C 188.46456 185.19371 188.60548 185.1285 188.74609 185.0625 C 188.94186 184.97069 189.1335 184.87456 189.32227 184.77539 C 189.44251 184.71217 189.56617 184.65211 189.68359 184.58594 C 189.9627 184.42875 190.23476 184.26346 190.49805 184.08984 C 190.61652 184.01166 190.72846 183.92716 190.84375 183.8457 C 190.99991 183.73546 191.15432 183.62399 191.30469 183.50781 C 191.4374 183.40519 191.56904 183.30054 191.69727 183.19336 C 191.82766 183.08444 191.95429 182.971 192.08008 182.85742 C 192.20017 182.7489 192.32159 182.64201 192.4375 182.5293 C 192.44245 182.52449 192.44821 182.52044 192.45312 182.51562 C 192.65961 182.31438 192.85943 182.10694 193.05273 181.89258 C 193.17683 181.75484 193.29341 181.60984 193.41211 181.4668 C 193.49364 181.36864 193.5753 181.27055 193.6543 181.16992 C 193.77982 181.00988 193.90231 180.84784 194.02148 180.68164 C 194.06422 180.62212 194.10456 180.56031 194.14648 180.5 C 194.77058 179.60117 195.30762 178.61705 195.75586 177.55273 C 195.76602 177.52864 195.77704 177.50464 195.78711 177.48047 C 196.24054 176.39074 196.60456 175.22015 196.88281 173.97461 C 196.88442 173.96742 196.88707 173.96033 196.88867 173.95312 C 196.8912 173.94178 196.89202 173.92933 196.89453 173.91797 C 197.68441 170.34279 197.75922 166.15404 197.23633 161.56055 C 197.18717 161.12793 197.13805 160.69565 197.07812 160.25586 C 197.00486 159.71874 196.92499 159.17619 196.83594 158.62891 C 196.76187 158.17327 196.67662 157.71231 196.5918 157.25 C 196.4902 156.69672 196.39214 156.14629 196.27539 155.58398 C 196.27514 155.58276 196.27564 155.5813 196.27539 155.58008 C 196.26483 155.52921 196.25092 155.47672 196.24023 155.42578 C 195.93105 153.95211 195.56363 152.44595 195.1543 150.91797 C 195.05964 150.56448 194.96705 150.21152 194.86719 149.85547 C 194.6788 149.18399 194.48194 148.50809 194.27539 147.82812 C 194.16122 147.4522 194.03955 147.07363 193.91992 146.69531 C 193.41297 145.09247 192.8672 143.47279 192.26562 141.83398 C 190.46493 141.81516 188.23828 141.79102 188.23828 141.79102 C 189.57304 140.84925 190.55385 140.07434 191.33594 139.4043 C 190.86737 138.20605 190.37534 137.00016 189.86133 135.79102 C 189.85745 135.78191 189.85349 135.77278 189.84961 135.76367 C 189.84384 135.75011 189.83781 135.73622 189.83203 135.72266 C 189.33566 134.55676 188.81813 133.38698 188.28125 132.21484 C 188.22833 132.09948 188.17245 131.98455 188.11914 131.86914 C 187.6098 130.76476 187.0847 129.65911 186.54102 128.55273 C 186.46024 128.38866 186.37643 128.22463 186.29492 128.06055 C 185.77452 127.01113 185.24129 125.96212 184.69141 124.91406 C 184.53902 124.62412 184.38115 124.33463 184.22656 124.04492 C 183.72975 123.11226 183.22608 122.18097 182.70703 121.25195 C 182.47448 120.83636 182.23295 120.4224 181.99609 120.00781 C 181.52955 119.19004 181.06302 118.37149 180.58008 117.55859 C 180.25972 117.01999 179.92493 116.48715 179.59766 115.95117 C 179.17653 115.26087 178.76248 114.56807 178.33008 113.88281 C 177.5603 112.66362 176.77594 111.45342 175.97266 110.25391 C 175.28549 109.2282 174.58262 108.22198 173.88086 107.2168 z M 108.53711 109.38477 L 108.5332 109.39453 L 108.53125 109.39062 L 108.53711 109.38477 z M 92.550781 143.61914 C 93.077961 143.61914 93.511719 144.05477 93.511719 144.58008 C 93.511719 145.10726 93.077961 145.53906 92.550781 145.53906 C 92.023971 145.53906 91.591797 145.10726 91.591797 144.58008 C 91.591797 144.05477 92.023971 143.61914 92.550781 143.61914 z M 209.61914 151.00195 C 210.14483 151.00195 210.58008 151.43414 210.58008 151.96094 C 210.58008 152.48775 210.14483 152.91992 209.61914 152.91992 C 209.09383 152.91992 208.66016 152.48775 208.66016 151.96094 C 208.66016 151.43414 209.09383 151.00195 209.61914 151.00195 z M 224.35938 152.25977 L 224.69531 155.32617 C 225.23246 155.45236 225.659 155.87415 225.79297 156.4082 L 228.83008 156.6875 L 225.80273 157.07812 C 225.68254 157.61404 225.26636 158.03808 224.73828 158.17969 L 224.39648 161.41211 L 224.05664 158.20117 C 223.49915 158.08181 223.05546 157.64535 222.92578 157.0918 L 219.89062 156.76172 L 222.92578 156.42773 C 223.05361 155.88482 223.48435 155.45438 224.02734 155.32617 L 224.35938 152.25977 z M 211.72852 156.61133 C 212.37788 156.61133 212.91016 157.14077 212.91016 157.78906 C 212.91016 158.43841 212.4169 158.97266 211.76758 158.97266 C 211.11786 158.97266 210.54883 158.43837 210.54883 157.78906 C 210.54883 157.14082 211.0821 156.61133 211.72852 156.61133 z M 194.76758 157.19727 C 195.41731 157.19727 195.94922 157.73266 195.94922 158.38086 C 195.94922 159.02872 195.41727 159.5625 194.76758 159.5625 C 194.11822 159.5625 193.58594 159.02868 193.58594 158.38086 C 193.58594 157.73262 194.11826 157.19727 194.76758 157.19727 z M 228.31836 163.54883 C 228.97071 163.54883 229.5 164.08414 229.5 164.73047 C 229.5 165.37833 228.97067 165.91016 228.31836 165.91016 C 227.66864 165.91016 227.13672 165.37829 227.13672 164.73047 C 227.13672 164.0841 227.66868 163.54883 228.31836 163.54883 z M 185.53711 163.8418 C 186.06691 163.8418 186.5 164.27397 186.5 164.80078 C 186.5 165.32646 186.06691 165.75977 185.53711 165.75977 C 185.01143 165.75977 184.57816 165.32646 184.57812 164.80078 C 184.57812 164.27397 185.01143 163.8418 185.53711 163.8418 z M 194.62695 165.46875 C 195.27631 165.46875 195.81055 166.0037 195.81055 166.65039 C 195.81055 167.29825 195.27627 167.83203 194.62695 167.83203 C 193.97723 167.83203 193.44531 167.29821 193.44531 166.65039 C 193.44531 166.00365 193.97727 165.46875 194.62695 165.46875 z M 92.921875 165.75977 C 93.569735 165.75977 94.103516 166.29126 94.103516 166.93945 C 94.103516 167.58731 93.569695 168.11914 92.921875 168.11914 C 92.273645 168.11914 91.738281 167.58736 91.738281 166.93945 C 91.738281 166.29122 92.273685 165.75977 92.921875 165.75977 z M 222.33203 166.06055 C 222.85734 166.06055 223.28906 166.49272 223.28906 167.01953 C 223.28906 167.54633 222.85734 167.97852 222.33203 167.97852 C 221.80672 167.97852 221.37109 167.54633 221.37109 167.01953 C 221.37109 166.49272 221.80672 166.06055 222.33203 166.06055 z M 61.888672 171.51758 C 62.535412 171.51758 63.070315 172.04991 63.070312 172.69922 C 63.070312 173.3441 62.535362 173.87891 61.888672 173.87891 C 61.240812 173.87891 60.707031 173.34414 60.707031 172.69922 C 60.707031 172.04987 61.240852 171.51758 61.888672 171.51758 z M 48.958984 172.85156 C 49.484294 172.85156 49.917969 173.28523 49.917969 173.81055 C 49.917969 174.33586 49.484304 174.76953 48.958984 174.76953 C 48.430684 174.76953 47.998047 174.33586 47.998047 173.81055 C 47.998047 173.28523 48.430684 172.85156 48.958984 172.85156 z M 211.68555 176.09961 C 212.21123 176.09961 212.65039 176.53225 212.65039 177.06055 C 212.65039 177.58587 212.21123 178.01953 211.68555 178.01953 C 211.16023 178.01953 210.72656 177.58587 210.72656 177.06055 C 210.72656 176.53225 211.16023 176.09961 211.68555 176.09961 z M 185.53711 177.12891 C 186.06691 177.12891 186.5 177.56303 186.5 178.08984 C 186.5 178.61515 186.06691 179.04883 185.53711 179.04883 C 185.01143 179.04883 184.57816 178.61515 184.57812 178.08984 C 184.57812 177.56303 185.01143 177.12891 185.53711 177.12891 z M 80.433594 177.42969 C 80.958904 177.42969 81.392578 177.86232 81.392578 178.39062 C 81.392578 178.91445 80.958914 179.34961 80.433594 179.34961 C 79.906784 179.34961 79.470703 178.91447 79.470703 178.39062 C 79.470703 177.86232 79.906794 177.42969 80.433594 177.42969 z M 214.01953 177.93945 L 214.35352 181.00781 C 214.88696 181.13615 215.30836 181.55639 215.44141 182.08789 L 218.48828 182.36914 L 215.45117 182.76367 C 215.33035 183.29392 214.9202 183.71386 214.39844 183.85742 L 214.05664 187.0918 L 213.7168 183.88477 C 213.15491 183.76877 212.70741 183.32955 212.57617 182.77344 L 209.54883 182.44336 L 212.57617 182.10938 C 212.70414 181.56356 213.13694 181.13045 213.68359 181.00391 L 214.01953 177.93945 z M 60.337891 178.31055 C 60.864701 178.31055 61.298828 178.74422 61.298828 179.26953 C 61.298828 179.79634 60.864691 180.22852 60.337891 180.22852 C 59.811081 180.22852 59.375 179.79634 59.375 179.26953 C 59.375 178.74422 59.811081 178.31055 60.337891 178.31055 z M 220.37109 181.56055 C 220.8964 181.56055 221.33008 181.99422 221.33008 182.51953 C 221.33008 183.04671 220.8964 183.47852 220.37109 183.47852 C 219.84129 183.47852 219.4082 183.04671 219.4082 182.51953 C 219.4082 181.99422 219.84129 181.56055 220.37109 181.56055 z M 64.990234 181.84766 C 65.636604 181.84766 66.173828 182.37998 66.173828 183.0293 C 66.173828 183.67716 65.636564 184.20898 64.990234 184.20898 C 64.342004 184.20898 63.808594 183.67721 63.808594 183.0293 C 63.808594 182.37994 64.342044 181.84766 64.990234 181.84766 z M 100.45703 182.30078 C 101.10639 182.30078 101.64062 182.83518 101.64062 183.48047 C 101.64062 184.12983 101.14387 184.66211 100.49414 184.66211 C 99.846284 184.66211 99.275391 184.12979 99.275391 183.48047 C 99.275391 182.83523 99.808844 182.30078 100.45703 182.30078 z M 151.25195 183.03125 C 151.77726 183.03125 152.21094 183.46342 152.21094 183.99023 C 152.21094 184.51591 151.77726 184.95117 151.25195 184.95117 C 150.72215 184.95117 150.28906 184.51591 150.28906 183.99023 C 150.28906 183.46342 150.72215 183.03125 151.25195 183.03125 z M 128.34961 191.15039 C 128.87791 191.15039 129.31055 191.58404 129.31055 192.10938 C 129.31055 192.63618 128.87791 193.06836 128.34961 193.06836 C 127.82429 193.06836 127.38867 192.63618 127.38867 192.10938 C 127.38867 191.58406 127.82429 191.15039 128.34961 191.15039 z M 88.707031 191.29883 C 89.235331 191.29883 89.667969 191.73446 89.667969 192.25977 C 89.667969 192.78695 89.271404 193.2207 88.746094 193.2207 C 88.219284 193.2207 87.748047 192.78695 87.748047 192.25977 C 87.748047 191.73446 88.181721 191.29883 88.707031 191.29883 z M 102.01367 193.8125 C 102.53749 193.8125 103.00977 194.24422 103.00977 194.76953 C 103.00977 195.29634 102.53749 195.73242 102.01367 195.73242 C 101.48537 195.73242 101.05078 195.29634 101.05078 194.76953 C 101.05078 194.24422 101.48537 193.8125 102.01367 193.8125 z M 91.957031 201.56055 L 92.294922 204.64648 C 92.810038 204.78328 93.216475 205.19102 93.349609 205.70703 L 96.427734 205.99023 L 93.363281 206.38672 C 93.246349 206.91056 92.846666 207.32914 92.335938 207.48047 L 91.996094 210.71289 L 91.660156 207.51953 C 91.076916 207.41307 90.609527 206.96217 90.480469 206.38867 L 87.488281 206.06445 L 90.484375 205.73438 C 90.615659 205.18057 91.062073 204.74054 91.623047 204.62305 L 91.957031 201.56055 z M 189.9707 202.82031 C 190.49601 202.82031 190.92969 203.25241 190.92969 203.7793 C 190.92969 204.30468 190.49601 204.73828 189.9707 204.73828 C 189.4424 204.73828 189.00586 204.30468 189.00586 203.7793 C 189.00586 203.25241 189.4424 202.82031 189.9707 202.82031 z "
     id="path3496" />
</svg>
